<mxfile host="app.diagrams.net" modified="2023-09-01T05:16:50.575Z" agent="Mozilla/5.0 (Windows NT 10.0; Win64; x64) AppleWebKit/537.36 (KHTML, like Gecko) Chrome/116.0.0.0 Safari/537.36" etag="IFwznI9zffW9Yn1Xw8N1" version="21.6.9" type="github">
  <diagram name="Страница — 1" id="S32pBR1Yxwfq7q0BbaRL">
    <mxGraphModel dx="2234" dy="1232" grid="1" gridSize="10" guides="1" tooltips="1" connect="1" arrows="1" fold="1" page="0" pageScale="1" pageWidth="827" pageHeight="1169" math="0" shadow="0">
      <root>
        <mxCell id="0" />
        <mxCell id="1" parent="0" />
        <mxCell id="brX-JjY1KmQOTWcL1tL5-14" style="edgeStyle=none;curved=1;rounded=0;orthogonalLoop=1;jettySize=auto;html=1;entryX=1;entryY=0.5;entryDx=0;entryDy=0;fontSize=12;startSize=8;endSize=8;" edge="1" parent="1" source="brX-JjY1KmQOTWcL1tL5-3" target="brX-JjY1KmQOTWcL1tL5-13">
          <mxGeometry relative="1" as="geometry" />
        </mxCell>
        <mxCell id="brX-JjY1KmQOTWcL1tL5-3" value="Страны" style="rounded=0;whiteSpace=wrap;html=1;fontSize=16;" vertex="1" parent="1">
          <mxGeometry x="-320" y="-80" width="120" height="60" as="geometry" />
        </mxCell>
        <mxCell id="brX-JjY1KmQOTWcL1tL5-23" style="edgeStyle=none;curved=1;rounded=0;orthogonalLoop=1;jettySize=auto;html=1;entryX=0;entryY=0.5;entryDx=0;entryDy=0;fontSize=12;startSize=8;endSize=8;" edge="1" parent="1" source="brX-JjY1KmQOTWcL1tL5-4" target="brX-JjY1KmQOTWcL1tL5-22">
          <mxGeometry relative="1" as="geometry" />
        </mxCell>
        <mxCell id="brX-JjY1KmQOTWcL1tL5-4" value="Требования к покупке билета" style="rounded=0;whiteSpace=wrap;html=1;fontSize=16;" vertex="1" parent="1">
          <mxGeometry x="-120" y="-80" width="120" height="60" as="geometry" />
        </mxCell>
        <mxCell id="brX-JjY1KmQOTWcL1tL5-16" style="edgeStyle=none;curved=1;rounded=0;orthogonalLoop=1;jettySize=auto;html=1;entryX=1;entryY=0.5;entryDx=0;entryDy=0;fontSize=12;startSize=8;endSize=8;" edge="1" parent="1" source="brX-JjY1KmQOTWcL1tL5-5" target="brX-JjY1KmQOTWcL1tL5-15">
          <mxGeometry relative="1" as="geometry" />
        </mxCell>
        <mxCell id="brX-JjY1KmQOTWcL1tL5-5" value="Самолеты" style="rounded=0;whiteSpace=wrap;html=1;fontSize=16;" vertex="1" parent="1">
          <mxGeometry x="-320" width="120" height="60" as="geometry" />
        </mxCell>
        <mxCell id="brX-JjY1KmQOTWcL1tL5-8" style="edgeStyle=none;curved=1;rounded=0;orthogonalLoop=1;jettySize=auto;html=1;entryX=1;entryY=0.5;entryDx=0;entryDy=0;fontSize=12;startSize=8;endSize=8;" edge="1" parent="1" source="brX-JjY1KmQOTWcL1tL5-6" target="brX-JjY1KmQOTWcL1tL5-7">
          <mxGeometry relative="1" as="geometry" />
        </mxCell>
        <mxCell id="brX-JjY1KmQOTWcL1tL5-6" value="Перелеты" style="rounded=0;whiteSpace=wrap;html=1;fontSize=16;" vertex="1" parent="1">
          <mxGeometry x="-320" y="80" width="120" height="60" as="geometry" />
        </mxCell>
        <mxCell id="brX-JjY1KmQOTWcL1tL5-7" value="Вылеты и прилеты учитываются только для этой аэрокомпании" style="rounded=0;whiteSpace=wrap;html=1;fontSize=16;" vertex="1" parent="1">
          <mxGeometry x="-720" y="70" width="280" height="100" as="geometry" />
        </mxCell>
        <mxCell id="brX-JjY1KmQOTWcL1tL5-10" value="Рейсы" style="rounded=0;whiteSpace=wrap;html=1;fontSize=16;" vertex="1" parent="1">
          <mxGeometry x="-320" y="160" width="120" height="60" as="geometry" />
        </mxCell>
        <mxCell id="brX-JjY1KmQOTWcL1tL5-25" style="edgeStyle=none;curved=1;rounded=0;orthogonalLoop=1;jettySize=auto;html=1;entryX=0;entryY=0.5;entryDx=0;entryDy=0;fontSize=12;startSize=8;endSize=8;" edge="1" parent="1" source="brX-JjY1KmQOTWcL1tL5-11" target="brX-JjY1KmQOTWcL1tL5-24">
          <mxGeometry relative="1" as="geometry" />
        </mxCell>
        <mxCell id="brX-JjY1KmQOTWcL1tL5-11" value="Виды покупки билета" style="rounded=0;whiteSpace=wrap;html=1;fontSize=16;" vertex="1" parent="1">
          <mxGeometry x="-120" width="120" height="60" as="geometry" />
        </mxCell>
        <mxCell id="brX-JjY1KmQOTWcL1tL5-28" style="edgeStyle=none;curved=1;rounded=0;orthogonalLoop=1;jettySize=auto;html=1;entryX=0;entryY=0.5;entryDx=0;entryDy=0;fontSize=12;startSize=8;endSize=8;" edge="1" parent="1" source="brX-JjY1KmQOTWcL1tL5-12" target="brX-JjY1KmQOTWcL1tL5-26">
          <mxGeometry relative="1" as="geometry" />
        </mxCell>
        <mxCell id="brX-JjY1KmQOTWcL1tL5-12" value="Виды мест (1, 2 класс и тп)" style="rounded=0;whiteSpace=wrap;html=1;fontSize=16;" vertex="1" parent="1">
          <mxGeometry x="-120" y="80" width="120" height="60" as="geometry" />
        </mxCell>
        <mxCell id="brX-JjY1KmQOTWcL1tL5-13" value="Страны в которых существует аэолклмпания" style="rounded=0;whiteSpace=wrap;html=1;fontSize=16;" vertex="1" parent="1">
          <mxGeometry x="-640" y="-160" width="200" height="80" as="geometry" />
        </mxCell>
        <mxCell id="brX-JjY1KmQOTWcL1tL5-15" value="Самолеты находяшиеся в аэрокомпании" style="rounded=0;whiteSpace=wrap;html=1;fontSize=16;" vertex="1" parent="1">
          <mxGeometry x="-640" y="-50" width="200" height="80" as="geometry" />
        </mxCell>
        <mxCell id="brX-JjY1KmQOTWcL1tL5-19" style="edgeStyle=none;curved=1;rounded=0;orthogonalLoop=1;jettySize=auto;html=1;entryX=1;entryY=0.5;entryDx=0;entryDy=0;fontSize=12;startSize=8;endSize=8;" edge="1" parent="1" source="brX-JjY1KmQOTWcL1tL5-17" target="brX-JjY1KmQOTWcL1tL5-18">
          <mxGeometry relative="1" as="geometry" />
        </mxCell>
        <mxCell id="brX-JjY1KmQOTWcL1tL5-17" value="Аэропорты" style="rounded=0;whiteSpace=wrap;html=1;fontSize=16;" vertex="1" parent="1">
          <mxGeometry x="-320" y="240" width="120" height="60" as="geometry" />
        </mxCell>
        <mxCell id="brX-JjY1KmQOTWcL1tL5-18" value="Один аэропорт может использоваться несколькими аэрокомпаниями, о том как они согласуют графики рейсов между собой нас не интересует, это может делать какое-то одно внешнее приложение с которым все остальные согласуют дорожки в аэропортах и рейсы по каждой из них" style="rounded=0;whiteSpace=wrap;html=1;fontSize=16;" vertex="1" parent="1">
          <mxGeometry x="-720" y="200" width="280" height="200" as="geometry" />
        </mxCell>
        <mxCell id="brX-JjY1KmQOTWcL1tL5-32" style="edgeStyle=none;curved=1;rounded=0;orthogonalLoop=1;jettySize=auto;html=1;entryX=0;entryY=0.5;entryDx=0;entryDy=0;fontSize=12;startSize=8;endSize=8;" edge="1" parent="1" source="brX-JjY1KmQOTWcL1tL5-21" target="brX-JjY1KmQOTWcL1tL5-29">
          <mxGeometry relative="1" as="geometry" />
        </mxCell>
        <mxCell id="brX-JjY1KmQOTWcL1tL5-21" value="Билеты" style="rounded=0;whiteSpace=wrap;html=1;fontSize=16;" vertex="1" parent="1">
          <mxGeometry x="-120" y="160" width="120" height="60" as="geometry" />
        </mxCell>
        <mxCell id="brX-JjY1KmQOTWcL1tL5-22" value="Паспортные данные, для упрощения номер паспорта, имя и фамилия" style="rounded=0;whiteSpace=wrap;html=1;fontSize=16;" vertex="1" parent="1">
          <mxGeometry x="80" y="-120" width="280" height="60" as="geometry" />
        </mxCell>
        <mxCell id="brX-JjY1KmQOTWcL1tL5-24" value="Бронирование, или прямая покупка" style="rounded=0;whiteSpace=wrap;html=1;fontSize=16;" vertex="1" parent="1">
          <mxGeometry x="80" y="-40" width="280" height="60" as="geometry" />
        </mxCell>
        <mxCell id="brX-JjY1KmQOTWcL1tL5-26" value="1 класс - люкс, 2 - класс - бизнес, 3 класс - эконом" style="rounded=0;whiteSpace=wrap;html=1;fontSize=16;" vertex="1" parent="1">
          <mxGeometry x="80" y="40" width="280" height="60" as="geometry" />
        </mxCell>
        <mxCell id="brX-JjY1KmQOTWcL1tL5-29" value="Какую информацию должен содержать билет" style="rounded=0;whiteSpace=wrap;html=1;fontSize=16;" vertex="1" parent="1">
          <mxGeometry x="80" y="120" width="280" height="60" as="geometry" />
        </mxCell>
        <mxCell id="brX-JjY1KmQOTWcL1tL5-33" value="Users" style="shape=table;startSize=30;container=1;collapsible=1;childLayout=tableLayout;fixedRows=1;rowLines=0;fontStyle=1;align=center;resizeLast=1;html=1;fontSize=16;" vertex="1" parent="1">
          <mxGeometry x="-720" y="480" width="240" height="150" as="geometry" />
        </mxCell>
        <mxCell id="brX-JjY1KmQOTWcL1tL5-34" value="" style="shape=tableRow;horizontal=0;startSize=0;swimlaneHead=0;swimlaneBody=0;fillColor=none;collapsible=0;dropTarget=0;points=[[0,0.5],[1,0.5]];portConstraint=eastwest;top=0;left=0;right=0;bottom=1;fontSize=16;" vertex="1" parent="brX-JjY1KmQOTWcL1tL5-33">
          <mxGeometry y="30" width="240" height="30" as="geometry" />
        </mxCell>
        <mxCell id="brX-JjY1KmQOTWcL1tL5-35" value="PK" style="shape=partialRectangle;connectable=0;fillColor=none;top=0;left=0;bottom=0;right=0;fontStyle=1;overflow=hidden;whiteSpace=wrap;html=1;fontSize=16;" vertex="1" parent="brX-JjY1KmQOTWcL1tL5-34">
          <mxGeometry width="30" height="30" as="geometry">
            <mxRectangle width="30" height="30" as="alternateBounds" />
          </mxGeometry>
        </mxCell>
        <mxCell id="brX-JjY1KmQOTWcL1tL5-36" value="UniqueID" style="shape=partialRectangle;connectable=0;fillColor=none;top=0;left=0;bottom=0;right=0;align=left;spacingLeft=6;fontStyle=5;overflow=hidden;whiteSpace=wrap;html=1;fontSize=16;" vertex="1" parent="brX-JjY1KmQOTWcL1tL5-34">
          <mxGeometry x="30" width="210" height="30" as="geometry">
            <mxRectangle width="210" height="30" as="alternateBounds" />
          </mxGeometry>
        </mxCell>
        <mxCell id="brX-JjY1KmQOTWcL1tL5-37" value="" style="shape=tableRow;horizontal=0;startSize=0;swimlaneHead=0;swimlaneBody=0;fillColor=none;collapsible=0;dropTarget=0;points=[[0,0.5],[1,0.5]];portConstraint=eastwest;top=0;left=0;right=0;bottom=0;fontSize=16;" vertex="1" parent="brX-JjY1KmQOTWcL1tL5-33">
          <mxGeometry y="60" width="240" height="30" as="geometry" />
        </mxCell>
        <mxCell id="brX-JjY1KmQOTWcL1tL5-38" value="" style="shape=partialRectangle;connectable=0;fillColor=none;top=0;left=0;bottom=0;right=0;editable=1;overflow=hidden;whiteSpace=wrap;html=1;fontSize=16;" vertex="1" parent="brX-JjY1KmQOTWcL1tL5-37">
          <mxGeometry width="30" height="30" as="geometry">
            <mxRectangle width="30" height="30" as="alternateBounds" />
          </mxGeometry>
        </mxCell>
        <mxCell id="brX-JjY1KmQOTWcL1tL5-39" value="passport_number: int" style="shape=partialRectangle;connectable=0;fillColor=none;top=0;left=0;bottom=0;right=0;align=left;spacingLeft=6;overflow=hidden;whiteSpace=wrap;html=1;fontSize=16;" vertex="1" parent="brX-JjY1KmQOTWcL1tL5-37">
          <mxGeometry x="30" width="210" height="30" as="geometry">
            <mxRectangle width="210" height="30" as="alternateBounds" />
          </mxGeometry>
        </mxCell>
        <mxCell id="brX-JjY1KmQOTWcL1tL5-40" value="" style="shape=tableRow;horizontal=0;startSize=0;swimlaneHead=0;swimlaneBody=0;fillColor=none;collapsible=0;dropTarget=0;points=[[0,0.5],[1,0.5]];portConstraint=eastwest;top=0;left=0;right=0;bottom=0;fontSize=16;" vertex="1" parent="brX-JjY1KmQOTWcL1tL5-33">
          <mxGeometry y="90" width="240" height="30" as="geometry" />
        </mxCell>
        <mxCell id="brX-JjY1KmQOTWcL1tL5-41" value="" style="shape=partialRectangle;connectable=0;fillColor=none;top=0;left=0;bottom=0;right=0;editable=1;overflow=hidden;whiteSpace=wrap;html=1;fontSize=16;" vertex="1" parent="brX-JjY1KmQOTWcL1tL5-40">
          <mxGeometry width="30" height="30" as="geometry">
            <mxRectangle width="30" height="30" as="alternateBounds" />
          </mxGeometry>
        </mxCell>
        <mxCell id="brX-JjY1KmQOTWcL1tL5-42" value="first_name: varchar (50)" style="shape=partialRectangle;connectable=0;fillColor=none;top=0;left=0;bottom=0;right=0;align=left;spacingLeft=6;overflow=hidden;whiteSpace=wrap;html=1;fontSize=16;" vertex="1" parent="brX-JjY1KmQOTWcL1tL5-40">
          <mxGeometry x="30" width="210" height="30" as="geometry">
            <mxRectangle width="210" height="30" as="alternateBounds" />
          </mxGeometry>
        </mxCell>
        <mxCell id="brX-JjY1KmQOTWcL1tL5-43" value="" style="shape=tableRow;horizontal=0;startSize=0;swimlaneHead=0;swimlaneBody=0;fillColor=none;collapsible=0;dropTarget=0;points=[[0,0.5],[1,0.5]];portConstraint=eastwest;top=0;left=0;right=0;bottom=0;fontSize=16;" vertex="1" parent="brX-JjY1KmQOTWcL1tL5-33">
          <mxGeometry y="120" width="240" height="30" as="geometry" />
        </mxCell>
        <mxCell id="brX-JjY1KmQOTWcL1tL5-44" value="" style="shape=partialRectangle;connectable=0;fillColor=none;top=0;left=0;bottom=0;right=0;editable=1;overflow=hidden;whiteSpace=wrap;html=1;fontSize=16;" vertex="1" parent="brX-JjY1KmQOTWcL1tL5-43">
          <mxGeometry width="30" height="30" as="geometry">
            <mxRectangle width="30" height="30" as="alternateBounds" />
          </mxGeometry>
        </mxCell>
        <mxCell id="brX-JjY1KmQOTWcL1tL5-45" value="last_name: varchar(50)" style="shape=partialRectangle;connectable=0;fillColor=none;top=0;left=0;bottom=0;right=0;align=left;spacingLeft=6;overflow=hidden;whiteSpace=wrap;html=1;fontSize=16;" vertex="1" parent="brX-JjY1KmQOTWcL1tL5-43">
          <mxGeometry x="30" width="210" height="30" as="geometry">
            <mxRectangle width="210" height="30" as="alternateBounds" />
          </mxGeometry>
        </mxCell>
        <mxCell id="brX-JjY1KmQOTWcL1tL5-74" style="edgeStyle=none;curved=1;rounded=0;orthogonalLoop=1;jettySize=auto;html=1;entryX=0;entryY=0.5;entryDx=0;entryDy=0;fontSize=12;startSize=8;endSize=8;" edge="1" parent="1" source="brX-JjY1KmQOTWcL1tL5-46" target="brX-JjY1KmQOTWcL1tL5-73">
          <mxGeometry relative="1" as="geometry" />
        </mxCell>
        <mxCell id="brX-JjY1KmQOTWcL1tL5-46" value="Юзеры" style="rounded=0;whiteSpace=wrap;html=1;fontSize=16;" vertex="1" parent="1">
          <mxGeometry x="-120" y="240" width="120" height="60" as="geometry" />
        </mxCell>
        <mxCell id="brX-JjY1KmQOTWcL1tL5-60" value="Airplanes" style="shape=table;startSize=30;container=1;collapsible=1;childLayout=tableLayout;fixedRows=1;rowLines=0;fontStyle=1;align=center;resizeLast=1;html=1;fontSize=16;" vertex="1" parent="1">
          <mxGeometry x="-400" y="480" width="180" height="150" as="geometry" />
        </mxCell>
        <mxCell id="brX-JjY1KmQOTWcL1tL5-61" value="" style="shape=tableRow;horizontal=0;startSize=0;swimlaneHead=0;swimlaneBody=0;fillColor=none;collapsible=0;dropTarget=0;points=[[0,0.5],[1,0.5]];portConstraint=eastwest;top=0;left=0;right=0;bottom=1;fontSize=16;" vertex="1" parent="brX-JjY1KmQOTWcL1tL5-60">
          <mxGeometry y="30" width="180" height="30" as="geometry" />
        </mxCell>
        <mxCell id="brX-JjY1KmQOTWcL1tL5-62" value="PK" style="shape=partialRectangle;connectable=0;fillColor=none;top=0;left=0;bottom=0;right=0;fontStyle=1;overflow=hidden;whiteSpace=wrap;html=1;fontSize=16;" vertex="1" parent="brX-JjY1KmQOTWcL1tL5-61">
          <mxGeometry width="30" height="30" as="geometry">
            <mxRectangle width="30" height="30" as="alternateBounds" />
          </mxGeometry>
        </mxCell>
        <mxCell id="brX-JjY1KmQOTWcL1tL5-63" value="UniqueID" style="shape=partialRectangle;connectable=0;fillColor=none;top=0;left=0;bottom=0;right=0;align=left;spacingLeft=6;fontStyle=5;overflow=hidden;whiteSpace=wrap;html=1;fontSize=16;" vertex="1" parent="brX-JjY1KmQOTWcL1tL5-61">
          <mxGeometry x="30" width="150" height="30" as="geometry">
            <mxRectangle width="150" height="30" as="alternateBounds" />
          </mxGeometry>
        </mxCell>
        <mxCell id="brX-JjY1KmQOTWcL1tL5-64" value="" style="shape=tableRow;horizontal=0;startSize=0;swimlaneHead=0;swimlaneBody=0;fillColor=none;collapsible=0;dropTarget=0;points=[[0,0.5],[1,0.5]];portConstraint=eastwest;top=0;left=0;right=0;bottom=0;fontSize=16;" vertex="1" parent="brX-JjY1KmQOTWcL1tL5-60">
          <mxGeometry y="60" width="180" height="30" as="geometry" />
        </mxCell>
        <mxCell id="brX-JjY1KmQOTWcL1tL5-65" value="" style="shape=partialRectangle;connectable=0;fillColor=none;top=0;left=0;bottom=0;right=0;editable=1;overflow=hidden;whiteSpace=wrap;html=1;fontSize=16;" vertex="1" parent="brX-JjY1KmQOTWcL1tL5-64">
          <mxGeometry width="30" height="30" as="geometry">
            <mxRectangle width="30" height="30" as="alternateBounds" />
          </mxGeometry>
        </mxCell>
        <mxCell id="brX-JjY1KmQOTWcL1tL5-66" value="Row 1" style="shape=partialRectangle;connectable=0;fillColor=none;top=0;left=0;bottom=0;right=0;align=left;spacingLeft=6;overflow=hidden;whiteSpace=wrap;html=1;fontSize=16;" vertex="1" parent="brX-JjY1KmQOTWcL1tL5-64">
          <mxGeometry x="30" width="150" height="30" as="geometry">
            <mxRectangle width="150" height="30" as="alternateBounds" />
          </mxGeometry>
        </mxCell>
        <mxCell id="brX-JjY1KmQOTWcL1tL5-67" value="" style="shape=tableRow;horizontal=0;startSize=0;swimlaneHead=0;swimlaneBody=0;fillColor=none;collapsible=0;dropTarget=0;points=[[0,0.5],[1,0.5]];portConstraint=eastwest;top=0;left=0;right=0;bottom=0;fontSize=16;" vertex="1" parent="brX-JjY1KmQOTWcL1tL5-60">
          <mxGeometry y="90" width="180" height="30" as="geometry" />
        </mxCell>
        <mxCell id="brX-JjY1KmQOTWcL1tL5-68" value="" style="shape=partialRectangle;connectable=0;fillColor=none;top=0;left=0;bottom=0;right=0;editable=1;overflow=hidden;whiteSpace=wrap;html=1;fontSize=16;" vertex="1" parent="brX-JjY1KmQOTWcL1tL5-67">
          <mxGeometry width="30" height="30" as="geometry">
            <mxRectangle width="30" height="30" as="alternateBounds" />
          </mxGeometry>
        </mxCell>
        <mxCell id="brX-JjY1KmQOTWcL1tL5-69" value="Row 2" style="shape=partialRectangle;connectable=0;fillColor=none;top=0;left=0;bottom=0;right=0;align=left;spacingLeft=6;overflow=hidden;whiteSpace=wrap;html=1;fontSize=16;" vertex="1" parent="brX-JjY1KmQOTWcL1tL5-67">
          <mxGeometry x="30" width="150" height="30" as="geometry">
            <mxRectangle width="150" height="30" as="alternateBounds" />
          </mxGeometry>
        </mxCell>
        <mxCell id="brX-JjY1KmQOTWcL1tL5-70" value="" style="shape=tableRow;horizontal=0;startSize=0;swimlaneHead=0;swimlaneBody=0;fillColor=none;collapsible=0;dropTarget=0;points=[[0,0.5],[1,0.5]];portConstraint=eastwest;top=0;left=0;right=0;bottom=0;fontSize=16;" vertex="1" parent="brX-JjY1KmQOTWcL1tL5-60">
          <mxGeometry y="120" width="180" height="30" as="geometry" />
        </mxCell>
        <mxCell id="brX-JjY1KmQOTWcL1tL5-71" value="" style="shape=partialRectangle;connectable=0;fillColor=none;top=0;left=0;bottom=0;right=0;editable=1;overflow=hidden;whiteSpace=wrap;html=1;fontSize=16;" vertex="1" parent="brX-JjY1KmQOTWcL1tL5-70">
          <mxGeometry width="30" height="30" as="geometry">
            <mxRectangle width="30" height="30" as="alternateBounds" />
          </mxGeometry>
        </mxCell>
        <mxCell id="brX-JjY1KmQOTWcL1tL5-72" value="Row 3" style="shape=partialRectangle;connectable=0;fillColor=none;top=0;left=0;bottom=0;right=0;align=left;spacingLeft=6;overflow=hidden;whiteSpace=wrap;html=1;fontSize=16;" vertex="1" parent="brX-JjY1KmQOTWcL1tL5-70">
          <mxGeometry x="30" width="150" height="30" as="geometry">
            <mxRectangle width="150" height="30" as="alternateBounds" />
          </mxGeometry>
        </mxCell>
        <mxCell id="brX-JjY1KmQOTWcL1tL5-73" value="Если пользователь собирается забронировать или купить билет через приложение он должен зарегистрироваться" style="rounded=0;whiteSpace=wrap;html=1;fontSize=16;" vertex="1" parent="1">
          <mxGeometry x="80" y="200" width="280" height="80" as="geometry" />
        </mxCell>
      </root>
    </mxGraphModel>
  </diagram>
</mxfile>
